<svg width="512" height="457" viewBox="0 0 512 457" fill="none" xmlns="http://www.w3.org/2000/svg">
<path d="M424.925 282.521C473.015 282.521 512 321.507 512 369.597C512 417.687 473.015 456.671 424.925 456.671C376.835 456.671 337.851 417.686 337.851 369.597C337.851 321.507 376.835 282.522 424.925 282.521ZM424.925 317.352C396.071 317.352 372.681 340.743 372.681 369.597C372.681 398.45 396.071 421.841 424.925 421.841C453.779 421.841 477.17 398.451 477.17 369.597C477.17 340.743 453.779 317.352 424.925 317.352Z" fill="#ECF0F1"/>
<path d="M41.7959 343.474H346.558V395.719H51.7959C46.2731 395.719 41.7959 391.241 41.7959 385.719V343.474Z" fill="#ECF0F1"/>
<path d="M51.7959 395.719C46.2731 395.719 41.7959 391.242 41.7959 385.719V183.256H94.0408V395.719H51.7959Z" fill="#ECF0F1"/>
<path d="M7.03818 215.472C3.1511 211.549 3.18049 205.217 7.10381 201.33L203.208 7.03816C207.131 3.15109 213.463 3.18049 217.35 7.10381L240.044 30.01C243.931 33.9333 243.902 40.2649 239.979 44.152L43.8747 238.444C39.9513 242.331 33.6198 242.301 29.7327 238.378L7.03818 215.472Z" fill="#ECF0F1"/>
<path d="M203.88 7.50275C207.767 3.57915 214.098 3.54931 218.022 7.43611L414.139 201.714C418.063 205.601 418.093 211.932 414.206 215.856L391.513 238.764C387.626 242.687 381.295 242.717 377.371 238.83L174.149 37.5148L203.88 7.50275Z" fill="#ECF0F1"/>
<rect x="165.442" y="183.256" width="45.2789" height="45.2789" rx="5" fill="#ECF0F1"/>
<rect x="219.429" y="183.256" width="45.2789" height="45.2789" rx="5" fill="#ECF0F1"/>
<rect x="165.442" y="237.242" width="45.2789" height="45.2789" rx="5" fill="#ECF0F1"/>
<rect x="219.429" y="237.242" width="45.2789" height="45.2789" rx="5" fill="#ECF0F1"/>
</svg>
