<svg version="1.1" id="Layer_1" xmlns="http://www.w3.org/2000/svg" xmlns:xlink="http://www.w3.org/1999/xlink" x="0px" y="0px"
	 width="100%" viewBox="0 0 512 512" enable-background="new 0 0 512 512" xml:space="preserve">
<path fill="#000000" opacity="1.000000" stroke="none" 
	d="
M513.000000,500.000000 
	C513.000000,504.329742 513.000000,508.659454 513.000000,512.968750 
	C342.333344,512.968750 171.666656,512.968750 1.000000,512.968750 
	C1.000000,508.940765 1.000000,504.944122 1.357846,500.370422 
	C2.921657,498.600250 3.936330,496.794128 5.374542,496.345306 
	C8.120905,495.488281 11.105336,495.084869 13.996691,495.055298 
	C26.589790,494.926575 39.184956,495.000000 51.775860,495.000000 
	C51.775860,347.405090 51.775860,200.374786 51.775860,52.999954 
	C46.765438,52.999954 41.940037,53.345818 37.183781,52.919754 
	C29.854586,52.263210 26.148958,51.316593 26.028292,41.624100 
	C25.901793,31.463072 26.085243,21.298197 25.960001,11.137138 
	C25.906404,6.788787 27.245747,3.349159 31.000000,1.000000 
	C181.355347,1.000000 331.710693,1.000000 482.632874,1.354603 
	C487.126190,2.807549 487.843903,6.225874 487.907623,9.376494 
	C488.140045,20.867352 488.244873,32.373852 487.866302,43.856934 
	C487.733490,47.885223 486.271942,51.867119 480.782043,52.104893 
	C474.605652,52.372395 468.445465,53.013264 462.200867,53.497726 
	C462.200867,200.545029 462.200867,347.576691 462.200867,495.000000 
	C475.181305,495.000000 487.965698,494.917572 500.747986,495.043549 
	C505.385529,495.089233 510.026245,495.613220 513.000000,500.000000 
M70.000000,445.500000 
	C70.000000,461.929749 70.000000,478.359467 70.000000,494.707642 
	C112.648697,494.707642 154.720764,494.707642 197.000000,494.707642 
	C197.000000,492.603882 197.000000,490.790924 197.000000,488.977966 
	C197.000000,443.311340 196.998962,397.644745 197.001022,351.978119 
	C197.001358,344.488159 199.490524,342.001526 206.986862,342.001007 
	C240.320160,341.998657 273.653442,341.998749 306.986755,342.000946 
	C314.498016,342.001434 316.998505,344.485443 316.998871,351.951721 
	C317.001068,397.785004 317.000000,443.618286 317.000000,489.451569 
	C317.000000,491.220886 317.000000,492.990204 317.000000,494.723785 
	C359.616272,494.723785 401.688263,494.723785 443.719543,494.723785 
	C443.719543,347.375671 443.719543,200.303925 443.719543,53.284718 
	C319.033783,53.284718 194.628662,53.284718 70.000000,53.284718 
	C70.000000,183.879532 70.000000,314.189758 70.000000,445.500000 
M329.500000,19.000000 
	C234.408173,19.000000 139.316345,19.000000 44.287262,19.000000 
	C44.287262,24.643288 44.287262,29.715788 44.287262,34.716980 
	C186.308060,34.716980 328.041412,34.716980 469.712738,34.716980 
	C469.712738,29.356745 469.712738,24.284246 469.712738,19.000000 
	C423.117218,19.000000 376.808594,19.000000 329.500000,19.000000 
M299.000000,438.500000 
	C299.000000,412.406586 299.000000,386.313171 299.000000,360.287506 
	C287.689453,360.287506 276.950867,360.287506 266.284790,360.287506 
	C266.284790,405.309570 266.284790,450.043549 266.284790,494.712524 
	C277.310547,494.712524 288.049042,494.712524 299.000000,494.712524 
	C299.000000,476.117279 299.000000,457.808624 299.000000,438.500000 
M242.400238,360.000000 
	C233.310760,360.000000 224.221283,360.000000 215.324112,360.000000 
	C215.324112,405.384064 215.324112,450.120605 215.324112,494.672424 
	C226.390991,494.672424 237.131424,494.672424 247.848694,494.672424 
	C247.848694,449.726929 247.848694,405.109222 247.848694,360.000000 
	C246.278336,360.000000 244.827820,360.000000 242.400238,360.000000 
z"/>
<path fill="#FFFFFF" opacity="1.000000" stroke="none" 
	d="
M30.531342,1.000000 
	C27.245747,3.349159 25.906404,6.788787 25.960001,11.137138 
	C26.085243,21.298197 25.901793,31.463072 26.028292,41.624100 
	C26.148958,51.316593 29.854586,52.263210 37.183781,52.919754 
	C41.940037,53.345818 46.765438,52.999954 51.775860,52.999954 
	C51.775860,200.374786 51.775860,347.405090 51.775860,495.000000 
	C39.184956,495.000000 26.589790,494.926575 13.996691,495.055298 
	C11.105336,495.084869 8.120905,495.488281 5.374542,496.345306 
	C3.936330,496.794128 2.921657,498.600250 1.357846,499.896667 
	C1.000000,333.666656 1.000000,167.333328 1.000000,1.000000 
	C10.745300,1.000000 20.403994,1.000000 30.531342,1.000000 
z"/>
<path fill="#FFFFFF" opacity="1.000000" stroke="none" 
	d="
M513.000000,499.531342 
	C510.026245,495.613220 505.385529,495.089233 500.747986,495.043549 
	C487.965698,494.917572 475.181305,495.000000 462.200867,495.000000 
	C462.200867,347.576691 462.200867,200.545029 462.200867,53.497726 
	C468.445465,53.013264 474.605652,52.372395 480.782043,52.104893 
	C486.271942,51.867119 487.733490,47.885223 487.866302,43.856934 
	C488.244873,32.373852 488.140045,20.867352 487.907623,9.376494 
	C487.843903,6.225874 487.126190,2.807549 483.099854,1.354603 
	C492.991730,1.000000 502.983429,1.000000 513.000000,1.000000 
	C513.000000,167.020889 513.000000,333.041779 513.000000,499.531342 
z"/>
<path fill="#FFFFFF" opacity="1.000000" stroke="none" 
	d="
M70.000000,445.000000 
	C70.000000,314.189758 70.000000,183.879532 70.000000,53.284718 
	C194.628662,53.284718 319.033783,53.284718 443.719543,53.284718 
	C443.719543,200.303925 443.719543,347.375671 443.719543,494.723785 
	C401.688263,494.723785 359.616272,494.723785 317.000000,494.723785 
	C317.000000,492.990204 317.000000,491.220886 317.000000,489.451569 
	C317.000000,443.618286 317.001068,397.785004 316.998871,351.951721 
	C316.998505,344.485443 314.498016,342.001434 306.986755,342.000946 
	C273.653442,341.998749 240.320160,341.998657 206.986862,342.001007 
	C199.490524,342.001526 197.001358,344.488159 197.001022,351.978119 
	C196.998962,397.644745 197.000000,443.311340 197.000000,488.977966 
	C197.000000,490.790924 197.000000,492.603882 197.000000,494.707642 
	C154.720764,494.707642 112.648697,494.707642 70.000000,494.707642 
	C70.000000,478.359467 70.000000,461.929749 70.000000,445.000000 
M282.090698,205.015472 
	C278.507507,206.541153 273.969940,206.908005 273.980682,212.476242 
	C274.026917,236.455231 274.011841,260.434326 273.987518,284.413391 
	C273.984039,287.836487 275.730957,290.051514 278.823669,290.849670 
	C281.622131,291.571869 284.587250,291.936829 287.481567,291.951965 
	C305.631897,292.046967 323.782959,292.000000 341.933777,292.000000 
	C366.412384,292.000000 390.891174,292.050629 415.369537,291.971252 
	C423.431885,291.945129 428.488708,289.615143 428.191742,279.718292 
	C427.562683,258.755493 428.000000,237.760712 428.000000,216.779037 
	C428.000000,207.877899 425.042908,205.001129 415.872131,205.000824 
	C371.577484,204.999359 327.282806,205.000671 282.090698,205.015472 
M117.500031,292.000000 
	C153.665878,292.000000 189.831711,292.000000 225.997559,291.999939 
	C227.330856,291.999939 228.675201,292.110809 229.995636,291.980255 
	C237.130386,291.274719 239.963654,289.078644 239.975677,283.919189 
	C240.030853,260.253174 239.979156,236.586960 240.022049,212.920898 
	C240.028595,209.311279 238.320724,207.007690 235.019211,206.079025 
	C232.709091,205.429214 230.241882,205.047913 227.843964,205.043747 
	C191.511566,204.980743 155.179016,205.000000 118.846512,205.000000 
	C111.680008,205.000000 104.513466,204.985489 97.347008,205.003845 
	C89.294487,205.024475 86.000061,208.253372 86.000031,216.077347 
	C85.999939,238.410172 86.040352,260.743134 85.966248,283.075714 
	C85.951279,287.589203 88.175926,290.498322 92.318214,290.882568 
	C100.344315,291.627106 108.435722,291.667694 117.500031,292.000000 
M274.000549,92.103607 
	C274.000366,115.578911 273.999786,139.054214 274.000244,162.529510 
	C274.000366,169.387772 276.553833,171.995010 283.356079,171.996124 
	C328.475281,172.003601 373.594513,172.003708 418.713715,171.995880 
	C425.198730,171.994766 427.990662,169.243896 427.994629,162.837570 
	C428.008545,140.361206 428.005981,117.884850 427.996399,95.408493 
	C427.993530,88.650841 425.306244,86.003487 418.460297,86.002693 
	C373.507568,85.997467 328.554810,86.034355 283.602264,85.945503 
	C279.227875,85.936859 275.978638,87.230095 274.000549,92.103607 
M143.500000,172.000000 
	C172.659393,172.000000 201.818771,172.008911 230.978165,171.992889 
	C237.211594,171.989471 239.998108,169.230606 239.998871,163.182175 
	C240.001724,140.521179 240.000656,117.860176 239.999573,95.199173 
	C239.999268,88.721977 237.334290,86.007141 230.859634,86.005623 
	C185.537628,85.994987 140.215622,85.992874 94.893623,86.008438 
	C88.790779,86.010536 86.011086,88.860207 86.006546,95.067627 
	C85.989983,117.728615 85.987808,140.389633 86.008057,163.050629 
	C86.013542,169.187454 88.837555,171.984268 95.011879,171.992752 
	C110.841225,172.014481 126.670624,172.000000 143.500000,172.000000 
M380.500000,342.000000 
	C368.010040,342.000000 355.520111,341.998596 343.030151,342.000610 
	C337.048798,342.001587 333.102844,345.371399 333.061859,351.382233 
	C332.908569,373.863129 332.896454,396.346527 333.071655,418.827118 
	C333.117279,424.676178 337.040741,427.998138 342.740051,427.998779 
	C368.219604,428.001587 393.699127,428.012238 419.178680,427.990845 
	C425.043274,427.985931 427.980011,425.127930 427.987610,419.367920 
	C428.017731,396.552948 428.012543,373.737915 427.991638,350.922882 
	C427.986053,344.805725 425.151367,342.018250 418.969910,342.006866 
	C406.479980,341.983856 393.989960,342.000000 380.500000,342.000000 
M147.500000,342.000000 
	C130.014069,342.000000 112.528107,341.987274 95.042191,342.006866 
	C88.853439,342.013794 86.014244,344.800873 86.008492,350.910767 
	C85.987167,373.559265 85.991096,396.207733 86.005669,418.856232 
	C86.009789,425.259979 88.800163,427.993286 95.308800,427.995880 
	C120.621819,428.006012 145.934830,428.001556 171.247849,427.998810 
	C176.953323,427.998199 180.881516,424.684723 180.927551,418.839203 
	C181.104645,396.358643 181.090332,373.875275 180.938904,351.394318 
	C180.898453,345.387268 176.948792,342.002472 170.981949,342.000580 
	C163.487961,341.998230 155.993988,342.000000 147.500000,342.000000 
z"/>
<path fill="#FFFFFF" opacity="1.000000" stroke="none" 
	d="
M330.000000,19.000000 
	C376.808594,19.000000 423.117218,19.000000 469.712738,19.000000 
	C469.712738,24.284246 469.712738,29.356745 469.712738,34.716980 
	C328.041412,34.716980 186.308060,34.716980 44.287262,34.716980 
	C44.287262,29.715788 44.287262,24.643288 44.287262,19.000000 
	C139.316345,19.000000 234.408173,19.000000 330.000000,19.000000 
z"/>
<path fill="#FFFFFF" opacity="1.000000" stroke="none" 
	d="
M299.000000,439.000000 
	C299.000000,457.808624 299.000000,476.117279 299.000000,494.712524 
	C288.049042,494.712524 277.310547,494.712524 266.284790,494.712524 
	C266.284790,450.043549 266.284790,405.309570 266.284790,360.287506 
	C276.950867,360.287506 287.689453,360.287506 299.000000,360.287506 
	C299.000000,386.313171 299.000000,412.406586 299.000000,439.000000 
z"/>
<path fill="#FFFFFF" opacity="1.000000" stroke="none" 
	d="
M242.888779,360.000000 
	C244.827820,360.000000 246.278336,360.000000 247.848694,360.000000 
	C247.848694,405.109222 247.848694,449.726929 247.848694,494.672424 
	C237.131424,494.672424 226.390991,494.672424 215.324112,494.672424 
	C215.324112,450.120605 215.324112,405.384064 215.324112,360.000000 
	C224.221283,360.000000 233.310760,360.000000 242.888779,360.000000 
z"/>
<path fill="#000000" opacity="1.000000" stroke="none" 
	d="
M282.539429,205.008240 
	C327.282806,205.000671 371.577484,204.999359 415.872131,205.000824 
	C425.042908,205.001129 428.000000,207.877899 428.000000,216.779037 
	C428.000000,237.760712 427.562683,258.755493 428.191742,279.718292 
	C428.488708,289.615143 423.431885,291.945129 415.369537,291.971252 
	C390.891174,292.050629 366.412384,292.000000 341.933777,292.000000 
	C323.782959,292.000000 305.631897,292.046967 287.481567,291.951965 
	C284.587250,291.936829 281.622131,291.571869 278.823669,290.849670 
	C275.730957,290.051514 273.984039,287.836487 273.987518,284.413391 
	C274.011841,260.434326 274.026917,236.455231 273.980682,212.476242 
	C273.969940,206.908005 278.507507,206.541153 282.539429,205.008240 
M342.000000,252.499893 
	C342.000000,242.736481 342.000000,232.973068 342.000000,223.286438 
	C325.022644,223.286438 308.619598,223.286438 292.286377,223.286438 
	C292.286377,240.310623 292.286377,257.046936 292.286377,273.713623 
	C308.977325,273.713623 325.380341,273.713623 342.000000,273.713623 
	C342.000000,266.785767 342.000000,260.142792 342.000000,252.499893 
M410.000000,233.521545 
	C410.000000,230.082870 410.000000,226.644196 410.000000,223.280930 
	C393.034271,223.280930 376.631073,223.280930 360.281250,223.280930 
	C360.281250,240.299774 360.281250,257.036255 360.281250,273.718323 
	C376.967285,273.718323 393.370453,273.718323 410.000000,273.718323 
	C410.000000,260.464172 410.000000,247.490631 410.000000,233.521545 
z"/>
<path fill="#000000" opacity="1.000000" stroke="none" 
	d="
M117.000046,292.000000 
	C108.435722,291.667694 100.344315,291.627106 92.318214,290.882568 
	C88.175926,290.498322 85.951279,287.589203 85.966248,283.075714 
	C86.040352,260.743134 85.999939,238.410172 86.000031,216.077347 
	C86.000061,208.253372 89.294487,205.024475 97.347008,205.003845 
	C104.513466,204.985489 111.680008,205.000000 118.846512,205.000000 
	C155.179016,205.000000 191.511566,204.980743 227.843964,205.043747 
	C230.241882,205.047913 232.709091,205.429214 235.019211,206.079025 
	C238.320724,207.007690 240.028595,209.311279 240.022049,212.920898 
	C239.979156,236.586960 240.030853,260.253174 239.975677,283.919189 
	C239.963654,289.078644 237.130386,291.274719 229.995636,291.980255 
	C228.675201,292.110809 227.330856,291.999939 225.997559,291.999939 
	C189.831711,292.000000 153.665878,292.000000 117.000046,292.000000 
M200.499878,274.000000 
	C207.598358,274.000000 214.696854,274.000000 221.713028,274.000000 
	C221.713028,256.688110 221.713028,239.951813 221.713028,223.287003 
	C205.021439,223.287003 188.618408,223.287003 172.286926,223.287003 
	C172.286926,240.311783 172.286926,257.048126 172.286926,274.000000 
	C181.548141,274.000000 190.524048,274.000000 200.499878,274.000000 
M104.000000,260.492065 
	C104.000000,264.927094 104.000000,269.362091 104.000000,273.714661 
	C120.974869,273.714661 137.378052,273.714661 153.714417,273.714661 
	C153.714417,256.691345 153.714417,239.954849 153.714417,223.285889 
	C137.024124,223.285889 120.620895,223.285889 104.000000,223.285889 
	C104.000000,235.545547 104.000000,247.520432 104.000000,260.492065 
z"/>
<path fill="#000000" opacity="1.000000" stroke="none" 
	d="
M274.004639,91.664871 
	C275.978638,87.230095 279.227875,85.936859 283.602264,85.945503 
	C328.554810,86.034355 373.507568,85.997467 418.460297,86.002693 
	C425.306244,86.003487 427.993530,88.650841 427.996399,95.408493 
	C428.005981,117.884850 428.008545,140.361206 427.994629,162.837570 
	C427.990662,169.243896 425.198730,171.994766 418.713715,171.995880 
	C373.594513,172.003708 328.475281,172.003601 283.356079,171.996124 
	C276.553833,171.995010 274.000366,169.387772 274.000244,162.529510 
	C273.999786,139.054214 274.000366,115.578911 274.004639,91.664871 
M368.544067,154.000000 
	C382.302521,154.000000 396.060974,154.000000 409.696503,154.000000 
	C409.696503,136.989975 409.696503,120.585663 409.696503,104.304947 
	C392.987061,104.304947 376.582703,104.304947 360.306549,104.304947 
	C360.306549,121.015671 360.306549,137.419876 360.306549,154.000000 
	C362.928070,154.000000 365.244293,154.000000 368.544067,154.000000 
M342.000000,148.400238 
	C342.000000,133.646790 342.000000,118.893349 342.000000,104.324173 
	C324.949005,104.324173 308.543793,104.324173 292.326233,104.324173 
	C292.326233,121.055115 292.326233,137.460388 292.326233,153.848602 
	C308.938354,153.848602 325.223785,153.848602 342.000000,153.848602 
	C342.000000,152.262192 342.000000,150.819763 342.000000,148.400238 
z"/>
<path fill="#000000" opacity="1.000000" stroke="none" 
	d="
M143.000000,172.000000 
	C126.670624,172.000000 110.841225,172.014481 95.011879,171.992752 
	C88.837555,171.984268 86.013542,169.187454 86.008057,163.050629 
	C85.987808,140.389633 85.989983,117.728615 86.006546,95.067627 
	C86.011086,88.860207 88.790779,86.010536 94.893623,86.008438 
	C140.215622,85.992874 185.537628,85.994987 230.859634,86.005623 
	C237.334290,86.007141 239.999268,88.721977 239.999573,95.199173 
	C240.000656,117.860176 240.001724,140.521179 239.998871,163.182175 
	C239.998108,169.230606 237.211594,171.989471 230.978165,171.992889 
	C201.818771,172.008911 172.659393,172.000000 143.000000,172.000000 
M118.504272,104.000000 
	C113.737259,104.000000 108.970245,104.000000 104.286255,104.000000 
	C104.286255,120.976936 104.286255,137.380020 104.286255,153.713684 
	C120.977066,153.713684 137.380157,153.713684 153.713623,153.713684 
	C153.713623,137.022812 153.713623,120.619728 153.713623,104.000000 
	C142.120071,104.000000 130.811691,104.000000 118.504272,104.000000 
M219.319519,104.000275 
	C203.573059,104.000275 187.826599,104.000275 172.354523,104.000275 
	C172.354523,121.110855 172.354523,137.517624 172.354523,153.642456 
	C189.116989,153.642456 205.523849,153.642456 221.999908,153.642456 
	C221.999908,137.955719 222.035080,122.626190 221.926117,107.297691 
	C221.918274,106.195946 220.857574,105.101677 219.319519,104.000275 
z"/>
<path fill="#000000" opacity="1.000000" stroke="none" 
	d="
M381.000000,342.000000 
	C393.989960,342.000000 406.479980,341.983856 418.969910,342.006866 
	C425.151367,342.018250 427.986053,344.805725 427.991638,350.922882 
	C428.012543,373.737915 428.017731,396.552948 427.987610,419.367920 
	C427.980011,425.127930 425.043274,427.985931 419.178680,427.990845 
	C393.699127,428.012238 368.219604,428.001587 342.740051,427.998779 
	C337.040741,427.998138 333.117279,424.676178 333.071655,418.827118 
	C332.896454,396.346527 332.908569,373.863129 333.061859,351.382233 
	C333.102844,345.371399 337.048798,342.001587 343.030151,342.000610 
	C355.520111,341.998596 368.010040,342.000000 381.000000,342.000000 
M374.500000,360.000000 
	C366.735199,360.000000 358.970367,360.000000 351.287415,360.000000 
	C351.287415,376.978882 351.287415,393.382172 351.287415,409.713013 
	C370.978729,409.713013 390.381378,409.713013 409.712646,409.713013 
	C409.712646,393.021210 409.712646,376.617920 409.712646,360.000000 
	C398.117645,360.000000 386.808807,360.000000 374.500000,360.000000 
z"/>
<path fill="#000000" opacity="1.000000" stroke="none" 
	d="
M148.000000,342.000000 
	C155.993988,342.000000 163.487961,341.998230 170.981949,342.000580 
	C176.948792,342.002472 180.898453,345.387268 180.938904,351.394318 
	C181.090332,373.875275 181.104645,396.358643 180.927551,418.839203 
	C180.881516,424.684723 176.953323,427.998199 171.247849,427.998810 
	C145.934830,428.001556 120.621819,428.006012 95.308800,427.995880 
	C88.800163,427.993286 86.009789,425.259979 86.005669,418.856232 
	C85.991096,396.207733 85.987167,373.559265 86.008492,350.910767 
	C86.014244,344.800873 88.853439,342.013794 95.042191,342.006866 
	C112.528107,341.987274 130.014069,342.000000 148.000000,342.000000 
M163.000000,378.500549 
	C163.000000,372.403168 163.000000,366.305817 163.000000,360.286896 
	C143.021500,360.286896 123.618858,360.286896 104.287247,360.286896 
	C104.287247,376.978638 104.287247,393.381897 104.287247,409.713135 
	C123.978455,409.713135 143.381088,409.713135 163.000000,409.713135 
	C163.000000,399.451935 163.000000,389.476196 163.000000,378.500549 
z"/>
<path fill="#FFFFFF" opacity="1.000000" stroke="none" 
	d="
M342.000000,252.999847 
	C342.000000,260.142792 342.000000,266.785767 342.000000,273.713623 
	C325.380341,273.713623 308.977325,273.713623 292.286377,273.713623 
	C292.286377,257.046936 292.286377,240.310623 292.286377,223.286438 
	C308.619598,223.286438 325.022644,223.286438 342.000000,223.286438 
	C342.000000,232.973068 342.000000,242.736481 342.000000,252.999847 
z"/>
<path fill="#FFFFFF" opacity="1.000000" stroke="none" 
	d="
M410.000000,234.019318 
	C410.000000,247.490631 410.000000,260.464172 410.000000,273.718323 
	C393.370453,273.718323 376.967285,273.718323 360.281250,273.718323 
	C360.281250,257.036255 360.281250,240.299774 360.281250,223.280930 
	C376.631073,223.280930 393.034271,223.280930 410.000000,223.280930 
	C410.000000,226.644196 410.000000,230.082870 410.000000,234.019318 
z"/>
<path fill="#FFFFFF" opacity="1.000000" stroke="none" 
	d="
M199.999908,274.000000 
	C190.524048,274.000000 181.548141,274.000000 172.286926,274.000000 
	C172.286926,257.048126 172.286926,240.311783 172.286926,223.287003 
	C188.618408,223.287003 205.021439,223.287003 221.713028,223.287003 
	C221.713028,239.951813 221.713028,256.688110 221.713028,274.000000 
	C214.696854,274.000000 207.598358,274.000000 199.999908,274.000000 
z"/>
<path fill="#FFFFFF" opacity="1.000000" stroke="none" 
	d="
M104.000000,259.993683 
	C104.000000,247.520432 104.000000,235.545547 104.000000,223.285889 
	C120.620895,223.285889 137.024124,223.285889 153.714417,223.285889 
	C153.714417,239.954849 153.714417,256.691345 153.714417,273.714661 
	C137.378052,273.714661 120.974869,273.714661 104.000000,273.714661 
	C104.000000,269.362091 104.000000,264.927094 104.000000,259.993683 
z"/>
<path fill="#FFFFFF" opacity="1.000000" stroke="none" 
	d="
M368.052277,154.000000 
	C365.244293,154.000000 362.928070,154.000000 360.306549,154.000000 
	C360.306549,137.419876 360.306549,121.015671 360.306549,104.304947 
	C376.582703,104.304947 392.987061,104.304947 409.696503,104.304947 
	C409.696503,120.585663 409.696503,136.989975 409.696503,154.000000 
	C396.060974,154.000000 382.302521,154.000000 368.052277,154.000000 
z"/>
<path fill="#FFFFFF" opacity="1.000000" stroke="none" 
	d="
M342.000000,148.888779 
	C342.000000,150.819763 342.000000,152.262192 342.000000,153.848602 
	C325.223785,153.848602 308.938354,153.848602 292.326233,153.848602 
	C292.326233,137.460388 292.326233,121.055115 292.326233,104.324173 
	C308.543793,104.324173 324.949005,104.324173 342.000000,104.324173 
	C342.000000,118.893349 342.000000,133.646790 342.000000,148.888779 
z"/>
<path fill="#FFFFFF" opacity="1.000000" stroke="none" 
	d="
M119.003792,104.000000 
	C130.811691,104.000000 142.120071,104.000000 153.713623,104.000000 
	C153.713623,120.619728 153.713623,137.022812 153.713623,153.713684 
	C137.380157,153.713684 120.977066,153.713684 104.286255,153.713684 
	C104.286255,137.380020 104.286255,120.976936 104.286255,104.000000 
	C108.970245,104.000000 113.737259,104.000000 119.003792,104.000000 
z"/>
<path fill="#FFFFFF" opacity="1.000000" stroke="none" 
	d="
M219.802963,104.002106 
	C220.857574,105.101677 221.918274,106.195946 221.926117,107.297691 
	C222.035080,122.626190 221.999908,137.955719 221.999908,153.642456 
	C205.523849,153.642456 189.116989,153.642456 172.354523,153.642456 
	C172.354523,137.517624 172.354523,121.110855 172.354523,104.000275 
	C187.826599,104.000275 203.573059,104.000275 219.802963,104.002106 
z"/>
<path fill="#FFFFFF" opacity="1.000000" stroke="none" 
	d="
M375.000000,360.000000 
	C386.808807,360.000000 398.117645,360.000000 409.712646,360.000000 
	C409.712646,376.617920 409.712646,393.021210 409.712646,409.713013 
	C390.381378,409.713013 370.978729,409.713013 351.287415,409.713013 
	C351.287415,393.382172 351.287415,376.978882 351.287415,360.000000 
	C358.970367,360.000000 366.735199,360.000000 375.000000,360.000000 
z"/>
<path fill="#FFFFFF" opacity="1.000000" stroke="none" 
	d="
M163.000000,379.000488 
	C163.000000,389.476196 163.000000,399.451935 163.000000,409.713135 
	C143.381088,409.713135 123.978455,409.713135 104.287247,409.713135 
	C104.287247,393.381897 104.287247,376.978638 104.287247,360.286896 
	C123.618858,360.286896 143.021500,360.286896 163.000000,360.286896 
	C163.000000,366.305817 163.000000,372.403168 163.000000,379.000488 
z"/>
</svg>