<?xml version="1.0" standalone="no"?>
<!DOCTYPE svg PUBLIC "-//W3C//DTD SVG 20010904//EN"
 "http://www.w3.org/TR/2001/REC-SVG-20010904/DTD/svg10.dtd">
<svg version="1.0" xmlns="http://www.w3.org/2000/svg"
 width="512.000000pt" height="512.000000pt" viewBox="0 0 512.000000 512.000000"
 preserveAspectRatio="xMidYMid meet">

<g transform="translate(0.000000,512.000000) scale(0.100000,-0.100000)"
fill="#000000" stroke="none">
<path d="M1359 3817 c-74 -50 -100 -136 -63 -210 9 -18 244 -260 522 -539
l507 -508 -507 -507 c-278 -280 -513 -522 -522 -540 -68 -135 82 -285 217
-217 18 9 260 244 540 522 l507 507 508 -507 c279 -278 521 -513 539 -522 135
-68 285 82 217 217 -9 18 -244 260 -522 540 l-507 507 507 508 c278 279 513
521 522 539 68 135 -82 285 -217 217 -18 -9 -260 -244 -539 -522 l-508 -507
-508 507 c-279 278 -521 513 -539 522 -47 23 -113 21 -154 -7z"/>
</g>
</svg>
