<?xml version="1.0" encoding="UTF-8"?>
<svg version="1.1" xmlns="http://www.w3.org/2000/svg" width="512" height="512">
<path d="M0 0 C8.7660176 5.87308327 16.0205909 13.69282959 23.44921875 21.11328125 C24.83431573 22.4919382 26.21955698 23.87045023 27.60493469 25.24882507 C30.49546402 28.12743617 33.38188839 31.01009257 36.26586914 33.89526367 C39.94396011 37.5735581 43.63563791 41.23788058 47.33098125 44.89883137 C50.19219671 47.7377118 53.04417676 50.5857357 55.89371681 53.4363308 C57.2503338 54.79060383 58.61015763 56.14167302 59.97336388 57.48931313 C80.05760646 77.36546588 80.05760646 77.36546588 80.38037109 91.70898438 C80.32988769 110.89267936 69.20893849 121.09080865 56.4135437 133.87406921 C55.00994682 135.28355503 53.60677645 136.69346568 52.20399487 138.10376292 C48.35729308 141.96848833 44.50437899 145.82696722 40.65035534 149.68438923 C36.49126089 153.84925342 32.33785577 158.01978517 28.18360901 162.18948364 C18.63133632 171.77482102 9.07055949 181.35165254 -0.49174011 190.92698539 C-5.21973608 195.66153296 -9.94659463 200.39721545 -14.67336318 205.13298837 C-30.86266413 221.35300147 -47.05446215 237.57051711 -63.25367928 253.78062725 C-64.26956474 254.79720909 -65.28544955 255.81379158 -66.30133372 256.83037471 C-66.80510066 257.33448718 -67.30886761 257.83859965 -67.82790021 258.35798826 C-70.38006719 260.9119086 -72.93222516 263.46583794 -75.484375 266.01977539 C-75.99084993 266.52659986 -76.49732486 267.03342434 -77.01914752 267.55560713 C-93.44633325 283.99432042 -109.85954105 300.44689718 -126.26457162 316.90771831 C-143.62130054 334.32336613 -160.99075189 351.7262252 -178.37472236 369.1146825 C-180.28354333 371.02409244 -182.19231128 372.93355537 -184.10103989 374.84305763 C-184.57100612 375.31320283 -185.04097236 375.78334802 -185.52517999 376.26774004 C-192.61256829 383.35839226 -199.690171 390.45871127 -206.7628212 397.56406212 C-214.8083975 405.64673341 -222.8658244 413.71735042 -230.93896146 421.7724975 C-235.05667226 425.88175438 -239.16852594 429.99645235 -243.26526833 434.12662315 C-247.01814797 437.90985336 -250.78692019 441.6764672 -254.56881712 445.43068395 C-255.93162201 446.78915277 -257.2885738 448.15352515 -258.63887919 449.52441903 C-266.15627683 457.14918904 -272.51071102 462.79831734 -283 466 C-284.19806274 466.45991837 -285.39612549 466.91983673 -286.63049316 467.39369202 C-287.63221558 467.75498703 -288.63393799 468.11628204 -289.66601562 468.48852539 C-290.83149429 468.91029556 -291.99697296 469.33206573 -293.19776917 469.76661682 C-294.42156784 470.20585983 -295.64536652 470.64510284 -296.90625 471.09765625 C-298.2264145 471.57359819 -299.54651693 472.04971233 -300.86656189 472.52598572 C-304.35747042 473.78418787 -307.84999824 475.03782583 -311.34321213 476.28961182 C-313.51245955 477.0669649 -315.68142718 477.84509497 -317.85037231 478.62329102 C-339.46753198 486.37557974 -361.08472942 494.12346461 -383 501 C-384.81564453 501.57137695 -384.81564453 501.57137695 -386.66796875 502.15429688 C-414.869597 510.90387511 -414.869597 510.90387511 -424.5625 506.3125 C-429.29081162 501.8266659 -432.13959205 498.51959371 -432.375 491.95703125 C-432.28378772 483.41981528 -429.60343846 475.71914648 -427 467.6875 C-426.46052189 465.9830075 -425.92188878 464.27824737 -425.3840332 462.57324219 C-418.93782614 442.27289272 -412.00605507 422.12915106 -405.03875732 402.00305176 C-403.98599463 398.95951043 -402.93621069 395.91495601 -401.88720703 392.87011719 C-400.17296158 387.89564836 -398.45368669 382.92294888 -396.72988892 377.95178223 C-396.08465004 376.09039798 -395.44039827 374.22867121 -394.79721069 372.36657715 C-393.90529971 369.78723283 -393.00811622 367.20978363 -392.109375 364.6328125 C-391.85273575 363.88800629 -391.5960965 363.14320007 -391.3316803 362.37582397 C-390.84405092 360.98461734 -390.34110568 359.59864295 -389.81989408 358.21966624 C-389.31990899 356.86607674 -388.85256368 355.49908833 -388.44512534 354.11482549 C-385.35454699 345.30755891 -377.97979495 339.29496787 -371.51324463 332.89178467 C-370.0954994 331.4697085 -368.67884889 330.04654025 -367.26319861 328.62237859 C-363.37672687 324.71892424 -359.47484125 320.83120549 -355.57022142 316.94591618 C-351.35931519 312.75043983 -347.16284635 308.54056543 -342.96453857 304.33248901 C-335.2156392 296.56990142 -327.455513 288.81864014 -319.68965567 281.07302227 C-312.51518492 273.9171175 -305.34580945 266.75615403 -298.18138885 259.59018707 C-297.70592152 259.11462806 -297.23045418 258.63906905 -296.74057875 258.14909916 C-294.81045206 256.21857931 -292.88035361 254.28803123 -290.95029465 252.35744367 C-272.8494024 234.25168165 -254.73478173 216.15971291 -236.61337764 198.07448289 C-220.5180502 182.01114809 -204.43272139 165.93787004 -188.35644531 149.85546875 C-187.3241704 148.82280699 -186.29189529 147.79014542 -185.25961998 146.75748405 C-184.49410979 145.99168684 -184.49410979 145.99168684 -183.71313475 145.21041898 C-181.14407504 142.64040491 -178.57499534 140.07041084 -176.00589371 137.50043869 C-175.49903597 136.99340716 -174.99217824 136.48637564 -174.46996118 135.96397952 C-161.03133246 122.52099435 -147.58551936 109.08519953 -134.1373632 95.65174603 C-133.4196545 94.93481755 -133.4196545 94.93481755 -132.68744664 94.20340567 C-132.2098532 93.72633157 -131.73225975 93.24925746 -131.24019377 92.75772657 C-130.76348119 92.28153173 -130.28676861 91.80533689 -129.7956102 91.3147119 C-128.83556449 90.35571429 -127.87551273 89.39672274 -126.91545487 88.4377373 C-120.22578683 81.75544641 -113.53876545 75.07051732 -106.85351682 68.38380524 C-98.23771409 59.76615584 -89.61680639 51.15365964 -80.98755005 42.54947993 C-76.82693728 38.40072807 -72.66872787 34.24964217 -68.51695251 30.09204483 C-64.71619337 26.28611351 -60.9085762 22.48718665 -57.09536526 18.69373217 C-55.71724426 17.32035033 -54.34163498 15.94444249 -52.96881011 14.56576666 C-51.10123156 12.69099926 -49.22465293 10.8257162 -47.34558487 8.96247482 C-46.81584954 8.42628769 -46.2861142 7.89010055 -45.74032629 7.33766532 C-33.55978332 -4.65127924 -15.31721192 -8.74950666 0 0 Z M-21.11962891 33.90844727 C-21.97991699 34.78557373 -22.84020508 35.6627002 -23.7265625 36.56640625 C-24.1930722 37.03811752 -24.65958191 37.5098288 -25.14022827 37.99583435 C-26.63995308 39.51341042 -28.13289464 41.03743455 -29.625 42.5625 C-31.57203824 44.54642611 -33.52230467 46.52709104 -35.4765625 48.50390625 C-35.95127991 48.98416763 -36.42599731 49.46442902 -36.9151001 49.95924377 C-40.27201954 53.33022122 -43.74789765 56.5063614 -47.36474609 59.59399414 C-49.33564423 61.2885899 -51.18149483 63.0811093 -53 64.9375 C-54 65.95833333 -55 66.97916667 -56 68 C-52.20301491 72.53520306 -48.28288646 76.86013997 -44.08642578 81.02709961 C-43.5295961 81.58407532 -42.97276642 82.14105103 -42.39906311 82.71490479 C-40.58351 84.52976899 -38.76445606 86.34107911 -36.9453125 88.15234375 C-35.67571469 89.42007374 -34.40633952 90.68802673 -33.13717651 91.95619202 C-29.81532426 95.27424776 -26.49047867 98.58928789 -23.16497803 101.90368652 C-19.76440491 105.29398355 -16.36670263 108.68715506 -12.96875 112.08007812 C-6.31528981 118.72285162 0.34133959 125.36243946 7 132 C8.43302711 130.81815125 8.43302711 130.81815125 9.89500427 129.61242676 C10.43238944 129.16923347 10.96977461 128.72604019 11.52344418 128.26941681 C13.23724237 126.79603924 14.66703648 125.21692942 16.09765625 123.46875 C21.20476702 117.48585337 26.85752637 112.0363608 32.4375 106.5 C33.5620833 105.38044368 34.68643405 104.26065371 35.81054688 103.140625 C38.53769344 100.42438466 41.26795907 97.71131708 44 95 C42.37582304 90.91482394 39.45036838 88.16868302 36.38867188 85.12988281 C35.81613174 84.55383804 35.24359161 83.97779327 34.65370178 83.3842926 C32.7637119 81.4855142 30.86651702 79.59412809 28.96875 77.703125 C27.65331212 76.38634002 26.33817127 75.06925826 25.02331543 73.75189209 C22.26927355 70.99490316 19.51164986 68.24156091 16.75146484 65.49072266 C13.20690886 61.95758329 9.67143598 58.41551214 6.13857269 54.87068558 C3.4262292 52.15113133 0.70916037 49.43633859 -2.00938416 46.72298431 C-3.31545512 45.41825086 -4.62003283 44.1120209 -5.92311096 42.8042984 C-7.74018158 40.98217305 -9.56349708 39.16654158 -11.38867188 37.35253906 C-12.20071327 36.53442497 -12.20071327 36.53442497 -13.02915955 35.69978333 C-16.79072037 31.53524927 -16.79072037 31.53524927 -21.11962891 33.90844727 Z M-82 94 C-116.64526367 128.0943466 -151.22601257 162.25298236 -185.72297584 196.49740793 C-189.8078612 200.55228106 -193.89327037 204.60662604 -197.97900391 208.66064453 C-198.79229401 209.46763919 -199.60558412 210.27463385 -200.44351938 211.10608289 C-213.56469177 224.12319666 -226.72770197 237.09718874 -239.90704283 250.05537573 C-253.45796924 263.38081581 -266.96205763 276.75242771 -280.4249413 290.16681743 C-288.71515187 298.42431058 -297.03859326 306.6449427 -305.41005775 314.82006255 C-311.16942405 320.45126055 -316.88216223 326.12724692 -322.56233647 331.83830342 C-325.82774019 335.11888531 -329.1080963 338.3782368 -332.44604683 341.58511543 C-351.5572304 359.98107902 -360.79848702 377.16567971 -367 403 C-366.11812012 403.46470703 -365.23624023 403.92941406 -364.32763672 404.40820312 C-362.58377686 405.33536133 -362.58377686 405.33536133 -360.8046875 406.28125 C-359.07968018 407.19487305 -359.07968018 407.19487305 -357.31982422 408.12695312 C-352.8161114 410.66795068 -348.88587275 413.60368602 -345 417 C-344.38640625 417.53109375 -343.7728125 418.0621875 -343.140625 418.609375 C-335.88831322 425.34824878 -331.18356776 434.13083635 -327 443 C-319.35263609 440.99014588 -311.80935941 438.76391693 -304.3125 436.25 C-302.84200195 435.7859375 -302.84200195 435.7859375 -301.34179688 435.3125 C-299.89836914 434.82523437 -299.89836914 434.82523437 -298.42578125 434.328125 C-297.14828003 433.90901855 -297.14828003 433.90901855 -295.8449707 433.48144531 C-287.30760539 429.03583193 -280.64299233 420.78315491 -273.90161133 414.02186584 C-272.7935983 412.91428952 -271.68536528 411.80693325 -270.57693291 410.69977659 C-267.54854183 407.67361085 -264.5232597 404.64435401 -261.49849677 401.61456239 C-258.22980318 398.34153622 -254.95820552 395.07141506 -251.68696594 391.80093384 C-246.02529077 386.13978212 -240.36544431 380.47680747 -234.70684814 374.8125782 C-226.52554054 366.62313146 -218.34146153 358.43645889 -210.1567111 350.25045317 C-196.87644198 336.96799733 -183.59840595 323.68331148 -170.32177734 310.3972168 C-157.42744361 297.49369913 -144.53205634 284.59123583 -131.63525391 271.69018555 C-130.83982787 270.89449679 -130.04440184 270.09880804 -129.22487199 269.2790075 C-125.23430726 265.2871377 -121.24372185 261.29528859 -117.25312614 257.30344975 C-84.16554283 224.20550564 -51.08158479 191.1039396 -18 158 C-19.74336604 154.27814157 -21.86761747 151.87888226 -24.78515625 148.95605469 C-25.26991425 148.46779205 -25.75467224 147.97952942 -26.25411987 147.47647095 C-27.85193075 145.86988315 -29.45691542 144.27069119 -31.0625 142.671875 C-32.17615555 141.55687208 -33.28951408 140.44157242 -34.40258789 139.32598877 C-36.73292674 136.9927045 -39.06683732 134.66306869 -41.40332031 132.3359375 C-44.40307562 129.34760284 -47.3937283 126.35034434 -50.38179016 123.35032272 C-52.67722597 121.0476752 -54.97738498 118.7497936 -57.27902222 116.45334625 C-58.38413471 115.34957079 -59.48775554 114.24429984 -60.58987427 113.1375351 C-62.12675478 111.59559781 -63.669861 110.06018023 -65.21484375 108.52636719 C-66.09261475 107.65018738 -66.97038574 106.77400757 -67.87475586 105.87127686 C-69.77823128 103.77972026 -69.77823128 103.77972026 -72 104 C-72.33 103.01 -72.66 102.02 -73 101 C-73.66 101 -74.32 101 -75 101 C-75.33 100.01 -75.66 99.02 -76 98 C-76.66 98 -77.32 98 -78 98 C-78.33 97.01 -78.66 96.02 -79 95 C-79.99 94.67 -80.98 94.34 -82 94 Z M-378 437 C-384.16865719 449.58458308 -384.16865719 449.58458308 -387 463 C-378.185701 460.74603165 -369.60369272 457.9375631 -361 455 C-361.4916561 450.42759827 -363.16308329 448.21745617 -366.25 444.875 C-367.01828125 444.02679688 -367.7865625 443.17859375 -368.578125 442.3046875 C-372.68766051 438.34882317 -372.68766051 438.34882317 -378 437 Z " fill="#000000" transform="translate(432,4)"/>
</svg>
