<?xml version="1.0" encoding="UTF-8"?>
<svg version="1.1" xmlns="http://www.w3.org/2000/svg" width="512" height="512">
<path d="M0 0 C4.80334049 3.92480279 9.23298952 8.22769907 13.609375 12.6171875 C14.92242279 13.92594428 16.24956772 15.22270038 17.6328125 16.45703125 C39.94803405 36.72766444 51.78829424 71.0194858 53.875 100.3203125 C56.06880847 147.35008163 37.27177876 188.55818427 6.60986328 223.17236328 C4.04168016 226.08795607 1.52179564 229.04430227 -1 232 C-7.84279366 239.99903646 -14.74483197 247.94642069 -21.64550781 255.89550781 C-27.94641765 263.15484482 -34.23170301 270.42663522 -40.48071289 277.73071289 C-44.67167591 282.62578521 -48.8916827 287.49525314 -53.1159668 292.36157227 C-58.77313092 298.88275208 -64.38921135 305.43891561 -70 312 C-69.42032471 312.01458252 -68.84064941 312.02916504 -68.2434082 312.04418945 C-65.59912447 312.11898528 -62.95605998 312.21553898 -60.3125 312.3125 C-59.40048828 312.33505859 -58.48847656 312.35761719 -57.54882812 312.38085938 C-51.46159004 312.6243489 -47.75589805 313.43416388 -43.1875 317.6875 C-41.43636677 321.09760156 -41.33904682 324.29724079 -42 328 C-45 333.5 -45 333.5 -48 335 C-50.31144405 335.11794072 -52.6263369 335.16988925 -54.94067383 335.19287109 C-55.65469864 335.20104858 -56.36872345 335.20922607 -57.10438538 335.21765137 C-59.47192545 335.24250302 -61.83940557 335.2590208 -64.20703125 335.2734375 C-65.01536596 335.27876118 -65.82370068 335.28408485 -66.65653038 335.28956985 C-70.93515449 335.31630064 -75.21374943 335.3356756 -79.49243164 335.35009766 C-83.91121769 335.36674436 -88.32925772 335.41152169 -92.74776173 335.4624691 C-96.14585728 335.49613005 -99.5437755 335.50767375 -102.94202232 335.51332474 C-104.57073352 335.52004062 -106.19943291 335.53527165 -107.82798195 335.55921555 C-110.10965324 335.59084751 -112.38930946 335.59090812 -114.67114258 335.58349609 C-116.61734245 335.59562637 -116.61734245 335.59562637 -118.6028595 335.60800171 C-122.86516415 334.84515763 -124.3082329 333.31095336 -127 330 C-128.61540873 326.76918255 -128.5896275 323.49240902 -128 320 C-126.04342803 316.47212699 -123.89144937 314.29714979 -120 313 C-118.44733347 312.8535286 -116.89004338 312.75305926 -115.33203125 312.68359375 C-114.43935547 312.64169922 -113.54667969 312.59980469 -112.62695312 312.55664062 C-111.69818359 312.51732422 -110.76941406 312.47800781 -109.8125 312.4375 C-108.87212891 312.39431641 -107.93175781 312.35113281 -106.96289062 312.30664062 C-104.64207146 312.20061335 -102.32114675 312.09854971 -100 312 C-100.54527344 311.40574219 -101.09054688 310.81148438 -101.65234375 310.19921875 C-106.43601234 304.9412719 -111.03663655 299.58897956 -115.46875 294.03125 C-116.3040625 293.0309375 -117.139375 292.030625 -118 291 C-118.52565048 290.19430573 -119.05130096 289.38861145 -119.59288025 288.5585022 C-122.84727333 284.11451566 -125.32186871 281.40841688 -130.78359985 280.0791626 C-135.42668299 279.62100169 -140.06393808 279.71714591 -144.72265625 279.8046875 C-146.43616722 279.8008952 -148.14967357 279.79269696 -149.86314392 279.78030396 C-154.34710779 279.75959154 -158.82861787 279.79826906 -163.31225586 279.84979248 C-167.89765044 279.89182018 -172.48283469 279.87703405 -177.06835938 279.8671875 C-186.0462631 279.85620291 -195.02260147 279.90802817 -204 280 C-204.17400833 280.66241196 -204.34801666 281.32482391 -204.52729797 282.00730896 C-206.35933267 288.86637496 -208.43391788 295.60998528 -210.66796875 302.34765625 C-211.02023026 303.41842911 -211.37249176 304.48920197 -211.73542786 305.59242249 C-212.49153766 307.89053195 -213.2487862 310.18826702 -214.00708008 312.48565674 C-216.02545162 318.60161472 -218.03496684 324.72047445 -220.04296875 330.83984375 C-220.45352509 332.09091919 -220.86408142 333.34199463 -221.28707886 334.63098145 C-226.29709534 349.91531321 -231.17831061 365.24091823 -236.04760742 380.57055664 C-236.36759201 381.57573837 -236.6875766 382.5809201 -237.01725769 383.61656189 C-237.61104231 385.48213591 -238.20328883 387.34820052 -238.7936554 389.21485901 C-239.05639755 390.04001511 -239.31913971 390.8651712 -239.58984375 391.71533203 C-239.81534912 392.42658234 -240.04085449 393.13783264 -240.27319336 393.87063599 C-241.09508638 396.27857961 -242.05505332 398.6376333 -243 401 C-138.72 401 -34.44 401 73 401 C69.04 389.12 65.08 377.24 61 365 C58.96809411 358.79488992 56.9406707 352.58928024 54.9375 346.375 C54.44872464 344.86331188 53.95978699 343.35167622 53.47070312 341.84008789 C52.22817505 337.99871489 50.98742033 334.15677207 49.74725342 330.31463623 C47.73759889 324.08968085 45.72502452 317.86566886 43.71243286 311.6416626 C43.02506339 309.51504245 42.33850493 307.38816198 41.65209961 305.26123047 C39.38659553 298.24828718 37.08942473 291.24921883 34.69921875 284.27758789 C34 282 34 282 34 280 C32.91058105 280.01571045 31.82116211 280.0314209 30.69873047 280.04760742 C26.63972425 280.10208978 22.5807501 280.13641639 18.52148438 280.16479492 C16.76784827 280.17983995 15.01424953 280.20028104 13.26074219 280.22631836 C10.73362991 280.26289121 8.20701704 280.2797692 5.6796875 280.29296875 C4.90132538 280.30845261 4.12296326 280.32393646 3.3210144 280.33988953 C-1.52752079 280.34137355 -4.78580896 279.65534795 -9 277 C-11.42166168 274.09400598 -11.96330364 272.33638332 -12.375 268.5625 C-11.9657902 264.67500694 -11.0709101 262.29811608 -9 259 C-5.71925324 256.81283549 -4.70155724 256.73784591 -0.8894043 256.69360352 C0.15210281 256.67761612 1.19360992 256.66162872 2.26667786 256.64515686 C3.39168198 256.63979416 4.5166861 256.63443146 5.67578125 256.62890625 C6.83369675 256.61987778 7.99161224 256.6108493 9.18461609 256.60154724 C11.63664153 256.58702881 14.08870584 256.57815407 16.54077148 256.57446289 C20.28761369 256.56257893 24.03280297 256.51341567 27.77929688 256.46289062 C30.16145029 256.45342519 32.54361383 256.44619074 34.92578125 256.44140625 C36.04471268 256.42187393 37.1636441 256.40234161 38.31648254 256.38221741 C39.36744614 256.38829514 40.41840973 256.39437286 41.5012207 256.40063477 C42.87997124 256.39302879 42.87997124 256.39302879 44.28657532 256.38526917 C48.06692956 257.24171465 50.52050148 259.11457462 53 262 C54.21929207 264.51304308 55.09781119 266.66977281 55.90576172 269.30151367 C56.26399489 270.38324089 56.26399489 270.38324089 56.6294651 271.48682117 C57.41506885 273.87483879 58.17230982 276.27086433 58.9296875 278.66796875 C59.48158434 280.36480908 60.03521031 282.06108786 60.5904541 283.75683594 C62.06942616 288.29017934 63.52410672 292.83097594 64.97411346 297.37365341 C66.47598333 302.06462306 68.00018886 306.74832255 69.52197266 311.43286133 C72.77791135 321.46974788 76.00232913 331.51657898 79.2199707 341.5657959 C80.39113012 345.22058305 81.56638059 348.87404961 82.7421875 352.52734375 C88.44796309 370.25978999 88.44796309 370.25978999 91.24169922 379.0612793 C91.53166779 379.97464554 91.82163635 380.88801178 92.12039185 381.82905579 C92.66717024 383.55381079 93.21270838 385.27895963 93.75680542 387.00456238 C94.96107592 390.80896565 96.19429959 394.59665208 97.51660156 398.36181641 C97.75319489 399.04182205 97.98978821 399.7218277 98.23355103 400.42243958 C98.85934817 402.20723413 99.49861714 403.98729005 100.13916016 405.7668457 C101.50732671 410.90542475 101.7631954 414.60519462 99.1875 419.3125 C97 422 97 422 94 424 C91.34521407 424.25299966 91.34521407 424.25299966 88.07221508 424.25726891 C86.82636991 424.2637178 85.58052473 424.27016669 84.29692668 424.276811 C82.90678759 424.27386845 81.51664889 424.27073299 80.12651062 424.26742554 C78.6556415 424.27115996 77.18477437 424.27576065 75.7139104 424.28115618 C71.66188765 424.29342745 67.6099472 424.29312088 63.55791008 424.29076743 C59.19174106 424.2903603 54.82559879 424.3013885 50.45944214 424.31088257 C41.90126752 424.32751639 33.34312045 424.3329932 24.78493103 424.33410732 C17.82995767 424.33505672 10.87499343 424.33916158 3.92002296 424.34550858 C-15.78736088 424.36312788 -35.49472291 424.37234643 -55.20211468 424.37084763 C-56.79674199 424.37072776 -56.79674199 424.37072776 -58.42358398 424.37060547 C-59.48796309 424.37052371 -60.5523422 424.37044195 -61.64897522 424.37035771 C-78.90069446 424.36954472 -96.15232641 424.3886837 -113.40402041 424.4168822 C-131.10692486 424.44559047 -148.80978671 424.45942362 -166.51271504 424.45769465 C-176.45597116 424.45703001 -186.39913579 424.46255451 -196.34237099 424.48405075 C-204.80833689 424.50223556 -213.27416984 424.5066322 -221.74014679 424.4930319 C-226.06089758 424.48648841 -230.3813931 424.48643456 -234.70211983 424.5037384 C-238.65682464 424.51941367 -242.61107061 424.51666277 -246.56576385 424.49917014 C-247.99713283 424.49608793 -249.42853558 424.49977846 -250.85986475 424.51089029 C-264.14355374 424.60719285 -264.14355374 424.60719285 -269 420 C-271.60298674 416.5687902 -271.17250378 413.18604979 -271 409 C-270.23449707 405.83720398 -270.23449707 405.83720398 -269.14257812 402.57299805 C-268.73316986 401.33166107 -268.3237616 400.0903241 -267.90194702 398.81137085 C-267.44518835 397.46143932 -266.988285 396.11155675 -266.53125 394.76171875 C-266.05815838 393.33875339 -265.58606384 391.9154562 -265.11489868 390.49185181 C-264.11025073 387.46237601 -263.09944018 384.43505892 -262.08355713 381.40933228 C-260.48919227 376.66001996 -258.9086747 371.90618213 -257.33154297 367.15112305 C-257.06907461 366.35984292 -256.80660625 365.56856279 -256.53618431 364.75330448 C-256.00569233 363.15388115 -255.47525038 361.55444121 -254.94485855 359.95498466 C-254.14720601 357.55097597 -253.34824688 355.14740469 -252.54904175 352.74391174 C-248.31208784 339.99365618 -244.1793544 327.21241243 -240.10955811 314.40771484 C-239.13574113 311.34626753 -238.15775112 308.28618674 -237.17822266 305.2265625 C-233.49630265 293.72279862 -233.49630265 293.72279862 -229.88247681 282.19752502 C-229.26160039 280.20457808 -228.63255266 278.21445433 -227.99951172 276.2253418 C-227.28723259 273.98443062 -226.5891311 271.73892184 -225.91064453 269.48754883 C-225.60755371 268.5467749 -225.30446289 267.60600098 -224.9921875 266.63671875 C-224.62649658 265.45662231 -224.62649658 265.45662231 -224.25341797 264.25268555 C-222.47820373 261.06220993 -220.06312595 258.91492862 -217 257 C-213.65896606 256.36076355 -213.65896606 256.36076355 -209.98486328 256.34057617 C-209.31099075 256.33009247 -208.63711823 256.31960876 -207.94282532 256.30880737 C-205.73484397 256.28020662 -203.52844474 256.28633014 -201.3203125 256.29296875 C-199.78187103 256.27984442 -198.24344676 256.26453793 -196.70504761 256.24714661 C-192.67068352 256.20736879 -188.63677093 256.19711091 -184.60223389 256.19311523 C-180.47947557 256.18377003 -176.35698103 256.14634791 -172.234375 256.11132812 C-164.15624504 256.04682598 -156.07837543 256.01352561 -148 256 C-149.21888916 254.69023193 -149.21888916 254.69023193 -150.46240234 253.35400391 C-151.5453304 252.18660043 -152.62817079 251.01911562 -153.7109375 249.8515625 C-154.24452881 249.27865479 -154.77812012 248.70574707 -155.32788086 248.11547852 C-159.34572718 243.77792599 -163.08733166 239.29014649 -166.7890625 234.6796875 C-169.1093495 231.86746685 -171.53071134 229.18202737 -174 226.5 C-178.89082793 221.16455135 -183.52704792 215.6901327 -188 210 C-188.42394043 209.46987305 -188.84788086 208.93974609 -189.28466797 208.39355469 C-215.15257895 175.82474897 -227.42151761 133.30982082 -223 92 C-218.31603041 55.59711425 -199.08516923 22.69356614 -170.29296875 -0.01171875 C-166.96270093 -2.51300677 -163.52028944 -4.77429496 -160 -7 C-158.93007812 -7.69222656 -157.86015625 -8.38445313 -156.7578125 -9.09765625 C-108.52025946 -38.55093863 -44.58711802 -33.93906875 0 0 Z M-173.26416016 35.04541016 C-183.54737654 46.62451429 -190.43920811 60.73569698 -195.375 75.3125 C-195.73307739 76.36860474 -195.73307739 76.36860474 -196.09838867 77.44604492 C-206.0593585 108.50337616 -199.28817848 142.71789626 -185.03955078 171.265625 C-180.42940678 180.17719091 -175.47884304 188.311059 -169 196 C-168.55575684 196.53077148 -168.11151367 197.06154297 -167.65380859 197.60839844 C-164.67060829 201.16367729 -161.64193502 204.67730731 -158.59130859 208.17480469 C-156.99016072 210.01128543 -155.39466284 211.85252338 -153.80078125 213.6953125 C-150.53781863 217.46698742 -147.26938962 221.23389599 -144 225 C-137.14934251 232.89146954 -130.31155551 240.79298305 -123.51708984 248.73291016 C-118.26077064 254.87131243 -112.96494944 260.975239 -107.66748047 267.078125 C-105.95562281 269.05114747 -104.24517665 271.02538503 -102.53515625 273 C-97.03870186 279.34674324 -91.54164267 285.69260307 -86 292 C-82.40278644 290.5045292 -80.36902779 288.47293692 -77.8125 285.5625 C-77.02359375 284.6653125 -76.2346875 283.768125 -75.421875 282.84375 C-72.32449207 279.20682295 -69.32021628 275.49943265 -66.31640625 271.78515625 C-63.15907906 267.98890956 -59.81199409 264.38216642 -56.46875 260.75 C-54.05621896 258.06262366 -51.7674379 255.31034556 -49.5 252.5 C-45.66280969 247.74404581 -41.60614899 243.24495199 -37.46875 238.75 C-35.05621896 236.06262366 -32.7674379 233.31034556 -30.5 230.5 C-27.44651321 226.71539666 -24.29331699 223.07792463 -21 219.5 C-16.86244609 215.00377268 -12.97307313 210.36209619 -9.14453125 205.6015625 C-7.19115506 203.23189302 -5.15838582 200.99289184 -3.0625 198.75 C22.23254898 170.43764895 31.91797064 132.13128447 30 95 C27.66174375 72.27519085 16.95930137 50.98718309 2 34 C1.14259035 32.91923153 0.28781671 31.83635781 -0.5625 30.75 C-18.06815548 11.00002972 -45.84238177 -2.61457296 -72 -5 C-112.15040455 -7.26523133 -145.98062408 5.51919965 -173.26416016 35.04541016 Z " fill="#000000" transform="translate(341,55)"/>
<path d="M0 0 C1.07894531 0.41572266 1.07894531 0.41572266 2.1796875 0.83984375 C14.55651377 6.23295881 23.90584997 16.99513816 29.41015625 29.1015625 C34.83896872 43.53947953 35.33017315 60.78176063 29 75 C23.25842114 86.8845447 14.5878184 95.77445287 3 102 C2.24460937 102.41121094 1.48921875 102.82242188 0.7109375 103.24609375 C-13.07484449 109.71262036 -29.63505488 108.89641347 -43.75 104.25 C-49.0285882 102.17380638 -53.49887639 99.42982297 -58 96 C-58.67804688 95.49855469 -59.35609375 94.99710937 -60.0546875 94.48046875 C-70.31570431 86.27564792 -77.01151989 73.94353258 -79 61 C-80.24331163 43.66043557 -77.28202224 28.31681802 -66.3125 14.3125 C-60.31367437 7.76260115 -52.26393856 2.26457115 -44 -1 C-43.26265625 -1.29777344 -42.5253125 -1.59554687 -41.765625 -1.90234375 C-28.49097642 -6.37532316 -12.78817982 -5.35015686 0 0 Z M-47 28 C-54.3984103 37.53111531 -57.30217755 45.8414658 -56 58 C-53.58254969 67.71077499 -47.99875646 75.51992066 -39.48046875 80.7421875 C-30.75398748 85.16726934 -21.97047096 86.19168779 -12.58984375 83.2421875 C-3.51070993 79.53578295 3.64837286 73.87894441 7.96875 65.01171875 C11.1677472 56.91055455 11.36825343 47.78609757 8.3125 39.625 C4.13890974 30.63796592 -1.5996609 24.03796353 -10.9375 20.1875 C-23.60153129 16.0402149 -37.3013886 18.55661522 -47 28 Z " fill="#000000" transform="translate(279,113)"/>
</svg>
