<?xml version="1.0" standalone="no"?>
<!DOCTYPE svg PUBLIC "-//W3C//DTD SVG 20010904//EN"
 "http://www.w3.org/TR/2001/REC-SVG-20010904/DTD/svg10.dtd">
<svg version="1.0" xmlns="http://www.w3.org/2000/svg"
 width="512.000000pt" height="512.000000pt" viewBox="0 0 512.000000 512.000000"
 preserveAspectRatio="xMidYMid meet">

<g transform="translate(0.000000,512.000000) scale(0.100000,-0.100000)"
fill="#000000" stroke="none">
<path d="M2394 4726 c-159 -30 -288 -82 -400 -160 -107 -75 -1145 -887 -1201
-939 -131 -123 -231 -295 -285 -492 -22 -79 -23 -87 -26 -948 -2 -750 -1 -881
13 -958 74 -433 399 -759 830 -834 131 -23 2339 -23 2470 0 429 75 755 401
830 830 13 74 15 219 15 911 0 535 -4 850 -11 900 -31 224 -153 456 -317 604
-103 93 -1171 920 -1243 963 -80 47 -197 92 -292 113 -98 22 -294 27 -383 10z
m304 -321 c154 -31 192 -57 802 -531 311 -241 592 -466 625 -500 73 -75 127
-163 163 -269 l27 -80 0 -880 0 -880 -27 -80 c-39 -112 -92 -198 -173 -280
-82 -81 -168 -134 -280 -173 l-80 -27 -1195 0 -1195 0 -80 27 c-112 39 -198
92 -280 173 -81 82 -134 168 -173 280 l-27 80 0 880 0 880 27 80 c36 106 90
195 163 269 33 34 314 259 625 500 450 350 581 447 645 477 140 66 283 84 433
54z"/>
<path d="M1810 1429 c-14 -6 -36 -20 -48 -32 -78 -72 -68 -185 21 -251 28 -21
33 -21 777 -21 744 0 749 0 777 21 98 73 98 195 0 268 -28 21 -35 21 -765 23
-476 1 -746 -2 -762 -8z"/>
</g>
</svg>
