<?xml version="1.0" standalone="no"?>
<!DOCTYPE svg PUBLIC "-//W3C//DTD SVG 20010904//EN"
 "http://www.w3.org/TR/2001/REC-SVG-20010904/DTD/svg10.dtd">
<svg version="1.0" xmlns="http://www.w3.org/2000/svg"
 width="512.000000pt" height="512.000000pt" viewBox="0 0 512.000000 512.000000"
 preserveAspectRatio="xMidYMid meet">

<g transform="translate(0.000000,512.000000) scale(0.100000,-0.100000)"
fill="#000000" stroke="none">
<path d="M2912 4460 c-58 -26 -1802 -1755 -1827 -1811 -25 -55 -17 -156 15
-201 40 -54 1770 -1767 1801 -1784 42 -21 108 -28 157 -15 117 32 184 173 137
289 -11 27 -240 261 -812 830 l-798 792 801 798 c874 869 830 819 822 932 -10
144 -162 231 -296 170z"/>
</g>
</svg>
