<?xml version="1.0" standalone="no"?>
<!DOCTYPE svg PUBLIC "-//W3C//DTD SVG 20010904//EN"
 "http://www.w3.org/TR/2001/REC-SVG-20010904/DTD/svg10.dtd">
<svg version="1.0" xmlns="http://www.w3.org/2000/svg"
 width="512.000000pt" height="512.000000pt" viewBox="0 0 512.000000 512.000000"
 preserveAspectRatio="xMidYMid meet">

<g transform="translate(0.000000,512.000000) scale(0.100000,-0.100000)"
fill="#000000" stroke="none">
<path d="M2495 4626 c-37 -17 -70 -52 -84 -89 -8 -20 -11 -405 -11 -1235 l0
-1206 -192 191 c-106 106 -206 196 -221 202 -123 47 -246 -57 -217 -183 7 -34
56 -87 352 -383 189 -190 355 -351 370 -359 15 -8 45 -14 68 -14 23 0 53 6 68
14 15 8 181 169 370 359 368 369 370 371 352 452 -21 93 -97 139 -197 120 -32
-6 -68 -37 -235 -203 l-198 -196 -2 1221 c-3 1216 -3 1222 -24 1249 -11 15
-32 37 -46 47 -34 25 -113 32 -153 13z"/>
<path d="M1045 3136 c-223 -51 -407 -198 -500 -401 -66 -143 -65 -126 -65
-922 0 -683 1 -724 20 -797 63 -248 268 -453 516 -516 75 -19 118 -20 1544
-20 1426 0 1469 1 1544 20 248 63 453 268 516 516 19 73 20 114 20 797 0 796
1 779 -65 922 -83 180 -232 313 -430 381 -72 25 -94 28 -215 28 -119 1 -139
-1 -170 -20 -101 -59 -104 -195 -7 -268 20 -14 56 -23 144 -32 65 -7 141 -20
170 -29 102 -31 186 -118 225 -233 22 -66 23 -73 26 -706 2 -426 -1 -663 -8
-710 -13 -89 -56 -181 -105 -231 -48 -48 -141 -91 -225 -104 -90 -15 -2750
-15 -2840 0 -84 13 -177 56 -225 104 -49 50 -92 142 -105 231 -7 47 -10 284
-8 710 3 633 4 640 26 706 39 115 123 202 225 233 29 9 105 22 170 29 88 9
124 18 144 32 97 72 94 204 -4 265 -33 21 -52 24 -148 26 -66 2 -134 -3 -170
-11z"/>
</g>
</svg>
