<?xml version="1.0" standalone="no"?>
<!DOCTYPE svg PUBLIC "-//W3C//DTD SVG 20010904//EN"
 "http://www.w3.org/TR/2001/REC-SVG-20010904/DTD/svg10.dtd">
<svg version="1.0" xmlns="http://www.w3.org/2000/svg"
 width="512.000000pt" height="512.000000pt" viewBox="0 0 512.000000 512.000000"
 preserveAspectRatio="xMidYMid meet">

<g transform="translate(0.000000,512.000000) scale(0.100000,-0.100000)"
fill="#000000" stroke="none">
<path d="M2330 5004 c-19 -2 -82 -11 -140 -20 -911 -136 -1679 -790 -1964
-1672 -88 -271 -111 -430 -111 -752 0 -201 4 -278 18 -365 89 -534 309 -973
676 -1348 371 -381 841 -623 1386 -714 157 -26 573 -26 730 0 532 89 969 308
1344 672 386 375 627 842 718 1390 26 157 26 573 0 730 -91 548 -332 1015
-718 1390 -138 134 -220 200 -370 298 -300 196 -597 310 -969 373 -91 15 -515
28 -600 18z m585 -233 c482 -81 881 -286 1225 -631 351 -351 556 -754 637
-1255 24 -154 24 -497 -1 -650 -81 -503 -285 -904 -636 -1255 -349 -350 -754
-555 -1255 -637 -165 -26 -506 -24 -675 5 -492 84 -891 290 -1235 636 -343
345 -543 736 -627 1226 -18 103 -22 165 -22 350 0 185 4 247 22 350 84 489
285 883 627 1226 350 352 770 565 1255 638 154 23 177 24 380 20 123 -2 225
-10 305 -23z"/>
<path d="M2393 4145 c-324 -59 -602 -284 -722 -586 -54 -135 -65 -199 -65
-364 1 -165 15 -238 74 -376 91 -214 286 -408 501 -500 226 -96 479 -103 712
-19 241 88 460 301 556 541 53 132 65 199 65 359 0 160 -12 227 -65 359 -70
177 -225 360 -388 459 -197 120 -445 168 -668 127z m344 -220 c264 -61 484
-283 550 -553 22 -92 21 -257 -2 -347 -70 -276 -274 -480 -550 -550 -90 -23
-255 -24 -347 -2 -272 66 -489 283 -555 555 -21 88 -21 256 0 344 56 230 224
427 440 517 63 25 96 34 217 55 41 7 180 -4 247 -19z"/>
<path d="M1809 2020 c-214 -26 -409 -121 -562 -272 -87 -86 -145 -169 -200
-287 -66 -140 -60 -214 17 -246 69 -29 116 3 155 106 74 194 203 334 386 419
150 71 139 70 955 70 816 0 805 1 955 -70 183 -85 312 -225 386 -419 39 -103
86 -135 155 -106 77 32 83 106 17 246 -114 244 -313 427 -553 511 -150 52
-135 51 -915 54 -401 1 -760 -2 -796 -6z"/>
</g>
</svg>
